<svg xmlns="http://www.w3.org/2000/svg" version="1.1" xmlns:xlink="http://www.w3.org/1999/xlink" xmlns:svgjs="http://svgjs.dev/svgjs" width="100%" height="100%" viewBox="0 0 1000 600"><rect width="1000" height="600" x="0" y="0" fill="#99f443"/><g><rect width="333.3333333333333" height="333.3333333333333" rx="13.333333333333334" ry="13.333333333333334" y="175.30248495792281" fill="#ec449b" transform="matrix(0.8165649947619065,0,0,0.8165649947619064,0,20.759945175214014)" x="153.0802764892578"/><path d="M264.0735838642603 416.9691579998867L246.70674969340598 416.9691579998867L246.70674969340598 266.9691579998867L278.1841366280794 266.9691579998867L319.6414230602402 392.8787057385802L361.3097647687829 266.9691579998867L392.7871517034563 266.9691579998867L392.7871517034563 416.9691579998867L375.420317532602 416.9691579998867L375.420317532602 285.42141930641935L372.1640361255668 285.42141930641935L329.4102672813457 411.5420223214948L310.0836341155166 411.5420223214948L267.3298652712955 285.42141930641935L264.0735838642603 285.42141930641935L264.0735838642603 416.9691579998867Z " fill="#99f443" transform="matrix(0.8165649947619065,0,0,0.8165649947619064,0,20.759945175214014)"/><path d="M622.135179732453 416.96915831619907L622.135179732453 416.96915831619907Q606.0576100429851 416.96915831619907 595.8264293315053 412.2118025792085Q585.6239073895256 407.4831056117179 579.8348359505371 398.1976642937363Q574.0744232810487 388.9122229757548 571.8963567990529 375.2993074632819Q569.7469490865572 361.65773318130897 569.7469490865572 343.9179548608442L569.7469490865572 343.9179548608442Q569.7469490865572 325.77695376738023 571.8963567990529 311.9347680989078Q574.0744232810487 298.12124119993524 579.8348359505371 288.8357998819537Q585.6239073895256 279.55035856397217 595.8264293315053 274.7930028269816Q606.0576100429851 270.064305859491 622.135179732453 270.064305859491L622.135179732453 270.064305859491Q629.5864598024383 270.064305859491 636.8944460249238 270.7807750969896Q644.2310910169092 271.49724433448813 650.6219966153965 272.64359511448583Q657.0129022138838 273.76128712498365 661.5696465643747 274.7930028269816L661.5696465643747 274.7930028269816L660.939153635376 288.63518849545403Q656.4110680543849 287.80408417995574 649.7908922998981 286.9729798644574Q643.1993753149112 286.14187554895904 636.3785881739248 285.5400413894602Q629.5864598024383 284.90954846046145 623.9979997499494 284.90954846046145L623.9979997499494 284.90954846046145Q612.2479042549727 284.90954846046145 604.9112592629873 288.4059183394545Q597.6032730405018 291.93094698794755 593.6770216190096 299.238933210433Q589.7507701975175 306.57557820241846 588.3178317225203 317.6092044598965Q586.8562344780232 328.6428307173746 586.8562344780232 343.9179548608442L586.8562344780232 343.9179548608442Q586.8562344780232 358.7918562313146 588.3178317225203 369.8254824887927Q589.7507701975175 380.8591087462708 593.5623865410098 387.96648358225667Q597.3740028845023 395.10251718774254 604.8252829544874 398.5988870667356Q612.2479042549727 402.1239157152285 624.198611136449 402.1239157152285L624.198611136449 402.1239157152285Q632.8822182949317 402.1239157152285 643.2853516234111 400.9775649352309Q653.7171437213904 399.8312141552331 660.939153635376 398.5988870667356L660.939153635376 398.5988870667356L661.5696465643747 412.64168412170767Q656.6116794408846 413.67339982370555 649.9915036863977 414.70511552570355Q643.3999867014109 415.73683122770143 636.1779767874252 416.33866538720025Q628.9559668734396 416.96915831619907 622.135179732453 416.96915831619907ZM700.7748432402968 414.9057269122032L684.8692261678284 414.9057269122032L684.8692261678284 266.96915875349714L700.7748432402968 266.96915875349714L700.7748432402968 317.2939579953972Q704.4718245057894 315.6604081339004 709.7450380937789 313.9122231944039Q714.9895929122686 312.13537948540744 720.9792757377567 310.9030523969098Q726.9689585632448 309.6707253084123 732.328148459734 309.6707253084123L732.328148459734 309.6707253084123Q743.0751870222127 309.6707253084123 749.8673153936992 312.45062594990674Q756.6881025346856 315.2305265914012 760.4997188781781 321.33484449488907Q764.3113352216706 327.41050362887705 765.7729324661676 337.01119141135797Q767.2058709411648 346.6118791938389 767.2058709411648 360.2247947063118L767.2058709411648 360.2247947063118L767.2058709411648 414.9057269122032L751.0996424821967 414.9057269122032L751.0996424821967 360.8552876353106Q751.0996424821967 347.44298350933724 749.5520689291998 339.38986927985326Q748.0044953762028 331.3367550503693 743.4764097952119 327.72575009337635Q738.948324214221 324.11474513638365 729.4336127402398 324.11474513638365L729.4336127402398 324.11474513638365Q724.2750342302501 324.11474513638365 718.8298680252609 325.03182576038176Q713.3560430507717 325.9775651538799 708.5986873137813 327.41050362887705Q703.8699903462906 328.8721008733741 700.7748432402968 330.10442796187164L700.7748432402968 330.10442796187164L700.7748432402968 414.9057269122032ZM832.4045715535352 416.96915831619907L832.4045715535352 416.96915831619907Q816.928836023566 416.96915831619907 807.9586411700838 410.97947549071097Q798.9884463166015 404.98979266522286 795.0621948951093 393.2396971702462Q791.1359434736172 381.4896016752696 791.1359434736172 363.9504347413044L791.1359434736172 363.9504347413044Q791.1359434736172 344.34783640334336 796.4951333701065 332.4831058303669Q801.8829820360959 320.6183752573905 811.5696461270766 315.14455028290143Q821.2563102180574 309.6707253084123 834.4680029575311 309.6707253084123L834.4680029575311 309.6707253084123Q855.1023169974901 309.6707253084123 865.6200854039691 321.13423310838954Q876.1665125799482 332.5690821388668 876.1665125799482 357.9607519158163L876.1665125799482 357.9607519158163L875.3354082644498 370.1407289532921L807.4427833190848 370.1407289532921Q807.6433947055843 386.2182986427602 813.4324661445728 394.4720242587437Q819.1928788140615 402.72574987472734 834.2673915710316 402.72574987472734L834.2673915710316 402.72574987472734Q840.05646301002 402.72574987472734 846.9632264595062 402.41050341022793Q853.8699899089925 402.1239157152285 860.690777049979 401.69403417272935Q867.4829054214654 401.29281139973017 872.240261158456 400.862929857231L872.240261158456 400.862929857231L872.6414839314552 413.472788437206Q867.6835168079651 414.2752339832044 860.5761419719793 415.1063382987027Q853.4687671359934 415.9374426142011 846.0174870660081 416.4533004652Q838.5948657655229 416.96915831619907 832.4045715535352 416.96915831619907ZM807.4427833190848 357.1296476003179L807.4427833190848 357.1296476003179L860.0602841209802 357.1296476003179Q860.0602841209802 338.15754219135573 853.9846249869923 330.6202858128707Q847.8803070835045 323.08302943438565 834.4680029575311 323.08302943438565L834.4680029575311 323.08302943438565Q825.8130545685483 323.08302943438565 819.8233717430602 326.4934230048788Q813.8336889175721 329.9038165753721 810.6525655030784 337.3264378758574Q807.4427833190848 344.74905917634254 807.4427833190848 357.1296476003179ZM934.7450374378318 416.96915831619907L934.7450374378318 416.96915831619907Q930.2169518568408 416.96915831619907 923.9120225668534 416.65391185169966Q917.6357520463657 416.33866538720025 911.2448464478784 415.73683122770143Q904.8252820798912 415.1063382987027 899.8959737259011 414.70511552570355L899.8959737259011 414.70511552570355L899.8959737259011 266.96915875349714L915.973543415369 266.96915875349714L915.973543415369 316.69212383589837Q919.2693019078625 315.02991520490167 924.2272690313528 313.48234165190473Q929.1852361548429 311.9347680989078 934.8596725158316 310.81707608841Q940.5341088768203 309.6707253084123 945.6926873868101 309.6707253084123L945.6926873868101 309.6707253084123Q959.7354844417821 309.6707253084123 968.0751863662656 314.9439388964018Q976.4435470602489 320.1884937148914 980.0545520172417 331.6520015148686Q983.6655569742345 343.08685054534584 983.6655569742345 361.65773318130897L983.6655569742345 361.65773318130897Q983.6655569742345 382.292047221268 979.2234477017435 394.38604795024395Q974.7813384292522 406.4513899097199 964.1489349447734 411.69594472820955Q953.5451902297943 416.96915831619907 934.7450374378318 416.96915831619907ZM934.5444260513323 402.5251384882277L934.5444260513323 402.5251384882277Q948.5872231063044 402.5251384882277 955.4939865557906 398.2836406022362Q962.4007500052769 394.07080148574454 964.7794278737722 384.98597155426256Q967.1581057422674 375.9011416227807 967.1581057422674 361.65773318130897L967.1581057422674 361.65773318130897Q967.1581057422674 348.4746992113351 965.0946743382715 340.2209735953516Q963.0312429342755 331.967247979368 957.9586407327856 328.04099655787576Q952.9146973007958 324.11474513638365 944.0304787558134 324.11474513638365L944.0304787558134 324.11474513638365Q939.1011704018231 324.11474513638365 933.7133217358339 325.03182576038176Q928.3541318393445 325.9775651538799 923.7114111803537 327.3245273203772Q919.0686905213629 328.6428307173746 915.973543415369 329.9038165753721L915.973543415369 329.9038165753721L915.973543415369 401.4934227862298Q920.3010176098605 401.894645559229 925.9754539708492 402.2098920237284Q931.6498903318379 402.5251384882277 934.5444260513323 402.5251384882277ZM1024.733573667653 414.9057269122032L1008.8279565951846 414.9057269122032L1008.8279565951846 311.73415671240815L1024.733573667653 311.73415671240815L1024.733573667653 414.9057269122032ZM1024.733573667653 289.03641126845326L1008.8279565951846 289.03641126845326L1008.8279565951846 270.4655286324902L1024.733573667653 270.4655286324902L1024.733573667653 289.03641126845326ZM1071.56200303056 414.9057269122032L1055.6850447275915 414.9057269122032L1055.6850447275915 266.96915875349714L1071.56200303056 266.96915875349714L1071.56200303056 414.9057269122032Z " fill="#ec449b" transform="matrix(0.8165649947619065,0,0,0.8165649947619064,0,20.759945175214014)"/></g></svg>